MerriweatherSans-ExtraBold.ufo
<glyph name="at" format="1">
  <advance width="2245"/>
  <unicode hex="0040"/>
  <outline>
    <contour>
      <point x="1040" y="-461" type="curve" smooth="yes"/>
      <point x="1326" y="-461"/>
      <point x="1483" y="-384"/>
      <point x="1579" y="-319" type="curve"/>
      <point x="1533" y="-153" type="line"/>
      <point x="1447" y="-201"/>
      <point x="1326" y="-271"/>
      <point x="1060" y="-271" type="curve" smooth="yes"/>
      <point x="728" y="-271"/>
      <point x="369" y="-107"/>
      <point x="369" y="427" type="curve" smooth="yes"/>
      <point x="369" y="1016"/>
      <point x="790" y="1352"/>
      <point x="1250" y="1352" type="curve" smooth="yes"/>
      <point x="1542" y="1352"/>
      <point x="1869" y="1225"/>
      <point x="1869" y="771" type="curve" smooth="yes"/>
      <point x="1869" y="406"/>
      <point x="1695" y="206"/>
      <point x="1550" y="206" type="curve" smooth="yes"/>
      <point x="1497" y="206"/>
      <point x="1480" y="264"/>
      <point x="1513" y="422" type="curve" smooth="yes"/>
      <point x="1554" y="607"/>
      <point x="1611" y="912"/>
      <point x="1642" y="1056" type="curve"/>
      <point x="1445" y="1025" type="line"/>
      <point x="1389" y="1060"/>
      <point x="1295" y="1080"/>
      <point x="1217" y="1080" type="curve" smooth="yes"/>
      <point x="791" y="1080"/>
      <point x="610" y="717"/>
      <point x="604" y="443" type="curve" smooth="yes"/>
      <point x="597" y="143"/>
      <point x="758" y="-5"/>
      <point x="906" y="-5" type="curve" smooth="yes"/>
      <point x="1175" y="-5"/>
      <point x="1318" y="320"/>
      <point x="1392" y="533" type="curve"/>
      <point x="1390" y="533"/>
      <point x="1318" y="533"/>
      <point x="1315" y="533" type="curve"/>
      <point x="1265" y="345"/>
      <point x="1259" y="246"/>
      <point x="1263" y="183" type="curve" smooth="yes"/>
      <point x="1272" y="46"/>
      <point x="1342" y="-5"/>
      <point x="1476" y="-5" type="curve" smooth="yes"/>
      <point x="1772" y="-5"/>
      <point x="2090" y="247"/>
      <point x="2090" y="797" type="curve" smooth="yes"/>
      <point x="2090" y="1281"/>
      <point x="1730" y="1543"/>
      <point x="1255" y="1543" type="curve" smooth="yes"/>
      <point x="654" y="1543"/>
      <point x="143" y="1097"/>
      <point x="143" y="428" type="curve" smooth="yes"/>
      <point x="143" y="-192"/>
      <point x="558" y="-461"/>
    </contour>
    <contour>
      <point x="983" y="253" type="curve" smooth="yes"/>
      <point x="925" y="253"/>
      <point x="885" y="321"/>
      <point x="886" y="460" type="curve" smooth="yes"/>
      <point x="888" y="663"/>
      <point x="1018" y="861"/>
      <point x="1179" y="861" type="curve" smooth="yes"/>
      <point x="1245" y="861"/>
      <point x="1296" y="842"/>
      <point x="1321" y="814" type="curve"/>
      <point x="1292" y="583"/>
      <point x="1116" y="253"/>
    </contour>
  </outline>
</glyph>
<glyph name="A" format="1">
  <advance width="1460"/>
  <unicode hex="0041"/>
  <outline>
    <contour>
      <point x="380" y="0" type="line"/>
      <point x="670" y="1027" type="line"/>
      <point x="721" y="1224" type="line"/>
      <point x="771" y="1027" type="line"/>
      <point x="1075" y="0" type="line"/>
      <point x="1479" y="0" type="line"/>
      <point x="945" y="1532" type="line"/>
      <point x="511" y="1532" type="line"/>
      <point x="-19" y="0" type="line"/>
    </contour>
    <contour>
      <point x="314" y="284" type="line"/>
      <point x="1096" y="284" type="line"/>
      <point x="1054" y="550" type="line"/>
      <point x="356" y="550" type="line"/>
    </contour>
    <contour>
      <point x="693" y="-170" type="move" name="btm"/>
    </contour>
    <contour>
      <point x="731" y="1700" type="move" name="top"/>
    </contour>
  </outline>
</glyph>
<glyph name="D" format="1">
  <advance width="1561"/>
  <unicode hex="0044"/>
  <outline>
    <contour>
      <point x="173" y="0" type="line"/>
      <point x="307" y="0" type="line" smooth="yes"/>
      <point x="424" y="0"/>
      <point x="558" y="-15"/>
      <point x="706" y="-16" type="curve" smooth="yes"/>
      <point x="1194" y="-18"/>
      <point x="1477" y="280"/>
      <point x="1477" y="799" type="curve" smooth="yes"/>
      <point x="1477" y="1267"/>
      <point x="1245" y="1538"/>
      <point x="730" y="1538" type="curve" smooth="yes"/>
      <point x="587" y="1538"/>
      <point x="389" y="1522"/>
      <point x="313" y="1522" type="curve" smooth="yes"/>
      <point x="173" y="1522" type="line"/>
    </contour>
    <contour>
      <point x="556" y="280" type="curve"/>
      <point x="556" y="1250" type="line"/>
      <point x="592" y="1256"/>
      <point x="663" y="1263"/>
      <point x="714" y="1263" type="curve" smooth="yes"/>
      <point x="963" y="1263"/>
      <point x="1081" y="1132"/>
      <point x="1081" y="765" type="curve" smooth="yes"/>
      <point x="1081" y="420"/>
      <point x="943" y="266"/>
      <point x="730" y="265" type="curve" smooth="yes"/>
      <point x="662" y="265"/>
      <point x="594" y="269"/>
    </contour>
    <contour>
      <point x="763" y="-170" type="move" name="btm"/>
    </contour>
    <contour>
      <point x="777" y="1700" type="move" name="top"/>
    </contour>
  </outline>
</glyph>
<glyph name="O" format="1">
  <advance width="1603"/>
  <unicode hex="004F"/>
  <outline>
    <contour>
      <point x="796" y="-16" type="curve" smooth="yes"/>
      <point x="1213" y="-8"/>
      <point x="1499" y="223"/>
      <point x="1509" y="763" type="curve" smooth="yes"/>
      <point x="1518" y="1246"/>
      <point x="1258" y="1550"/>
      <point x="826" y="1538" type="curve" smooth="yes"/>
      <point x="403" y="1526"/>
      <point x="103" y="1309"/>
      <point x="93" y="769" type="curve" smooth="yes"/>
      <point x="84" y="285"/>
      <point x="347" y="-25"/>
    </contour>
    <contour>
      <point x="803" y="263" type="curve" smooth="yes"/>
      <point x="589" y="263"/>
      <point x="485" y="470"/>
      <point x="485" y="758" type="curve" smooth="yes"/>
      <point x="485" y="1131"/>
      <point x="635" y="1252"/>
      <point x="819" y="1252" type="curve" smooth="yes"/>
      <point x="1022" y="1252"/>
      <point x="1117" y="1059"/>
      <point x="1117" y="774" type="curve" smooth="yes"/>
      <point x="1117" y="407"/>
      <point x="997" y="263"/>
    </contour>
    <contour>
      <point x="799" y="-170" type="move" name="btm"/>
    </contour>
    <contour>
      <point x="829" y="1700" type="move" name="top"/>
    </contour>
  </outline>
</glyph>
<glyph name="U" format="1">
  <advance width="1545"/>
  <unicode hex="0055"/>
  <outline>
    <contour>
      <point x="780" y="-16" type="curve" smooth="yes"/>
      <point x="1219" y="-16"/>
      <point x="1408" y="226"/>
      <point x="1408" y="632" type="curve" smooth="yes"/>
      <point x="1408" y="1522" type="line"/>
      <point x="1032" y="1522" type="line"/>
      <point x="1032" y="685" type="line" smooth="yes"/>
      <point x="1032" y="373"/>
      <point x="946" y="284"/>
      <point x="775" y="284" type="curve" smooth="yes"/>
      <point x="604" y="284"/>
      <point x="515" y="365"/>
      <point x="517" y="685" type="curve" smooth="yes"/>
      <point x="520" y="1522" type="line"/>
      <point x="142" y="1522" type="line"/>
      <point x="138" y="638" type="line" smooth="yes"/>
      <point x="137" y="245"/>
      <point x="309" y="-16"/>
    </contour>
    <contour>
      <point x="768" y="-170" type="move" name="btm"/>
    </contour>
    <contour>
      <point x="773" y="1700" type="move" name="top"/>
    </contour>
  </outline>
</glyph>
<glyph name="bracketleft" format="1">
  <advance width="814"/>
  <unicode hex="005B"/>
  <outline>
    <contour>
      <point x="128" y="68" type="line"/>
      <point x="128" y="-129"/>
      <point x="176" y="-215"/>
      <point x="330" y="-215" type="curve" smooth="yes"/>
      <point x="491" y="-215"/>
      <point x="593" y="-200"/>
      <point x="700" y="-187" type="curve"/>
      <point x="700" y="-13" type="line"/>
      <point x="449" y="-12" type="line"/>
      <point x="449" y="1543" type="line"/>
      <point x="700" y="1543" type="line"/>
      <point x="700" y="1725" type="line"/>
      <point x="593" y="1735"/>
      <point x="492" y="1749"/>
      <point x="330" y="1749" type="curve" smooth="yes"/>
      <point x="177" y="1749"/>
      <point x="128" y="1683"/>
      <point x="128" y="1486" type="curve" smooth="yes"/>
    </contour>
  </outline>
</glyph>
<glyph name="asciicircum" format="1">
  <advance width="1390"/>
  <unicode hex="005E"/>
  <outline>
    <contour>
      <point x="138" y="490" type="line"/>
      <point x="575" y="1531" type="line"/>
      <point x="816" y="1531" type="line"/>
      <point x="1252" y="490" type="line"/>
      <point x="927" y="490" type="line"/>
      <point x="685" y="1099" type="line"/>
      <point x="704" y="1099" type="line"/>
      <point x="468" y="490" type="line"/>
    </contour>
  </outline>
</glyph>
<glyph name="u" format="1">
  <advance width="1362"/>
  <unicode hex="0075"/>
  <outline>
    <contour>
      <point x="531" y="-16" type="curve" smooth="yes"/>
      <point x="640" y="-16"/>
      <point x="791" y="31"/>
      <point x="870" y="96" type="curve"/>
      <point x="863" y="114" type="line"/>
      <point x="863" y="42" type="line" smooth="yes"/>
      <point x="863" y="-7"/>
      <point x="885" y="-16"/>
      <point x="932" y="-16" type="curve" smooth="yes"/>
      <point x="1200" y="-16" type="line"/>
      <point x="1200" y="1140" type="line"/>
      <point x="829" y="1140" type="line"/>
      <point x="829" y="303" type="line"/>
      <point x="803" y="280"/>
      <point x="736" y="250"/>
      <point x="667" y="250" type="curve" smooth="yes"/>
      <point x="565" y="250"/>
      <point x="516" y="289"/>
      <point x="516" y="461" type="curve" smooth="yes"/>
      <point x="516" y="1140" type="line"/>
      <point x="145" y="1140" type="line"/>
      <point x="145" y="470" type="line" smooth="yes"/>
      <point x="145" y="189"/>
      <point x="197" y="-16"/>
    </contour>
    <contour>
      <point x="663" y="-170" type="move" name="btm"/>
    </contour>
    <contour>
      <point x="687" y="1700" type="move" name="top"/>
    </contour>
  </outline>
</glyph>
<glyph name="z" format="1">
  <advance width="1110"/>
  <unicode hex="007A"/>
  <outline>
    <contour>
      <point x="94" y="0" type="line"/>
      <point x="1039" y="0" type="line"/>
      <point x="1039" y="260" type="line"/>
      <point x="547" y="260" type="line"/>
      <point x="613" y="352" type="line"/>
      <point x="1060" y="1045" type="line"/>
      <point x="1025" y="1140" type="line"/>
      <point x="122" y="1140" type="line"/>
      <point x="120" y="888" type="line"/>
      <point x="570" y="888" type="line"/>
      <point x="510" y="797" type="line"/>
      <point x="52" y="83" type="line"/>
    </contour>
    <contour>
      <point x="558" y="-170" type="move" name="btm"/>
    </contour>
    <contour>
      <point x="581" y="1700" type="move" name="top"/>
    </contour>
  </outline>
</glyph>
<glyph name="ordfeminine" format="1">
  <advance width="1079"/>
  <unicode hex="00AA"/>
  <outline>
    <contour>
      <point x="411" y="664" type="curve" smooth="yes"/>
      <point x="530" y="664"/>
      <point x="644" y="723"/>
      <point x="677" y="760" type="curve"/>
      <point x="709" y="824" type="line"/>
      <point x="665" y="905" type="line"/>
      <point x="648" y="893"/>
      <point x="596" y="867"/>
      <point x="523" y="867" type="curve" smooth="yes"/>
      <point x="459" y="867"/>
      <point x="406" y="908"/>
      <point x="406" y="968" type="curve" smooth="yes"/>
      <point x="406" y="1009"/>
      <point x="418" y="1054"/>
      <point x="472" y="1086" type="curve" smooth="yes"/>
      <point x="524" y="1114"/>
      <point x="587" y="1120"/>
      <point x="665" y="1120" type="curve"/>
      <point x="709" y="1182" type="line"/>
      <point x="665" y="1272" type="line"/>
      <point x="543" y="1272"/>
      <point x="417" y="1255"/>
      <point x="311" y="1216" type="curve" smooth="yes"/>
      <point x="199" y="1173"/>
      <point x="112" y="1080"/>
      <point x="112" y="946" type="curve" smooth="yes"/>
      <point x="112" y="775"/>
      <point x="226" y="664"/>
    </contour>
    <contour>
      <point x="965" y="670" type="line"/>
      <point x="965" y="1169" type="line"/>
      <point x="965" y="1311" type="line" smooth="yes"/>
      <point x="965" y="1546"/>
      <point x="831" y="1629"/>
      <point x="552" y="1629" type="curve" smooth="yes"/>
      <point x="391" y="1629"/>
      <point x="177" y="1555"/>
      <point x="139" y="1519" type="curve"/>
      <point x="196" y="1344" type="line"/>
      <point x="241" y="1376"/>
      <point x="408" y="1419"/>
      <point x="502" y="1419" type="curve" smooth="yes"/>
      <point x="624" y="1419"/>
      <point x="665" y="1397"/>
      <point x="665" y="1309" type="curve" smooth="yes"/>
      <point x="665" y="812" type="line"/>
      <point x="677" y="812" type="line"/>
      <point x="677" y="746" type="line" smooth="yes"/>
      <point x="677" y="664"/>
      <point x="721" y="670"/>
      <point x="797" y="670" type="curve" smooth="yes"/>
    </contour>
  </outline>
</glyph>
<glyph name="plusminus" format="1">
  <advance width="1401"/>
  <unicode hex="00B1"/>
  <outline>
    <contour>
      <point x="233" y="0" type="line"/>
      <point x="1154" y="0" type="line"/>
      <point x="1154" y="233" type="line"/>
      <point x="233" y="233" type="line"/>
    </contour>
    <component base="plus"/>
  </outline>
</glyph>
<glyph name="ordmasculine" format="1">
  <advance width="1077"/>
  <unicode hex="00BA"/>
  <outline>
    <contour>
      <point x="65" y="1160" type="curve" smooth="yes"/>
      <point x="62" y="861"/>
      <point x="228" y="663"/>
      <point x="531" y="663" type="curve" smooth="yes"/>
      <point x="764" y="663"/>
      <point x="994" y="798"/>
      <point x="999" y="1139" type="curve" smooth="yes"/>
      <point x="1004" y="1428"/>
      <point x="845" y="1632"/>
      <point x="554" y="1632" type="curve" smooth="yes"/>
      <point x="324" y="1632"/>
      <point x="70" y="1502"/>
    </contour>
    <contour>
      <point x="370" y="1160" type="curve" smooth="yes"/>
      <point x="370" y="1340"/>
      <point x="437" y="1407"/>
      <point x="543" y="1409" type="curve" smooth="yes"/>
      <point x="643" y="1412"/>
      <point x="695" y="1306"/>
      <point x="695" y="1137" type="curve" smooth="yes"/>
      <point x="695" y="960"/>
      <point x="643" y="887"/>
      <point x="543" y="885" type="curve" smooth="yes"/>
      <point x="429" y="883"/>
      <point x="370" y="994"/>
    </contour>
  </outline>
</glyph>
<glyph name="onehalf" format="1">
  <advance width="2583"/>
  <unicode hex="00BD"/>
  <outline>
    <contour>
      <point x="1550" y="-10" type="line"/>
      <point x="2425" y="-10" type="line"/>
      <point x="2425" y="252" type="line"/>
      <point x="1826" y="220" type="line"/>
      <point x="1805" y="142" type="line"/>
      <point x="2135" y="298"/>
      <point x="2373" y="481"/>
      <point x="2373" y="727" type="curve" smooth="yes"/>
      <point x="2373" y="873"/>
      <point x="2261" y="1045"/>
      <point x="1954" y="1045" type="curve" smooth="yes"/>
      <point x="1711" y="1045"/>
      <point x="1540" y="925"/>
      <point x="1477" y="833" type="curve"/>
      <point x="1608" y="661" type="line"/>
      <point x="1679" y="754"/>
      <point x="1766" y="807"/>
      <point x="1869" y="807" type="curve" smooth="yes"/>
      <point x="1967" y="807"/>
      <point x="2021" y="760"/>
      <point x="2021" y="666" type="curve" smooth="yes"/>
      <point x="2021" y="471"/>
      <point x="1664" y="238"/>
      <point x="1510" y="160" type="curve"/>
    </contour>
    <contour>
      <point x="432" y="680" type="line"/>
      <point x="765" y="680" type="line"/>
      <point x="765" y="1689" type="line"/>
      <point x="591" y="1714" type="line"/>
      <point x="543" y="1675"/>
      <point x="326" y="1565"/>
      <point x="204" y="1530" type="curve"/>
      <point x="244" y="1333" type="line"/>
      <point x="310" y="1344"/>
      <point x="375" y="1358"/>
      <point x="432" y="1376" type="curve"/>
    </contour>
    <component base="fraction" xOffset="659"/>
  </outline>
</glyph>
<glyph name="ae" format="1">
  <advance width="1877"/>
  <unicode hex="00E6"/>
  <outline>
    <contour>
      <point x="1314" y="-16" type="curve" smooth="yes"/>
      <point x="1516" y="-16"/>
      <point x="1685" y="46"/>
      <point x="1760" y="107" type="curve"/>
      <point x="1703" y="308" type="line"/>
      <point x="1648" y="278"/>
      <point x="1509" y="250"/>
      <point x="1400" y="250" type="curve" smooth="yes"/>
      <point x="1222" y="250"/>
      <point x="1118" y="324"/>
      <point x="1115" y="523" type="curve"/>
      <point x="1111" y="828"/>
      <point x="1182" y="917"/>
      <point x="1309" y="917" type="curve" smooth="yes"/>
      <point x="1421" y="917"/>
      <point x="1462" y="834"/>
      <point x="1453" y="668" type="curve"/>
      <point x="960" y="668" type="line"/>
      <point x="940" y="487" type="line"/>
      <point x="1781" y="487" type="line"/>
      <point x="1787" y="536"/>
      <point x="1792" y="610"/>
      <point x="1792" y="693" type="curve"/>
      <point x="1790" y="1059"/>
      <point x="1559" y="1156"/>
      <point x="1317" y="1156" type="curve" smooth="yes"/>
      <point x="957" y="1156"/>
      <point x="750" y="907"/>
      <point x="750" y="575" type="curve" smooth="yes"/>
      <point x="750" y="205"/>
      <point x="949" y="-16"/>
    </contour>
    <contour>
      <point x="92" y="333" type="curve" smooth="yes"/>
      <point x="92" y="112"/>
      <point x="249" y="-16"/>
      <point x="462" y="-16" type="curve" smooth="yes"/>
      <point x="623" y="-16"/>
      <point x="785" y="39"/>
      <point x="893" y="171" type="curve"/>
      <point x="876" y="255" type="line"/>
      <point x="802" y="307" type="line"/>
      <point x="767" y="252"/>
      <point x="685" y="212"/>
      <point x="612" y="212" type="curve" smooth="yes"/>
      <point x="537" y="212"/>
      <point x="466" y="257"/>
      <point x="466" y="361" type="curve" smooth="yes"/>
      <point x="466" y="449"/>
      <point x="516" y="475"/>
      <point x="559" y="493" type="curve" smooth="yes"/>
      <point x="601" y="512"/>
      <point x="672" y="528"/>
      <point x="757" y="528" type="curve"/>
      <point x="805" y="642" type="line"/>
      <point x="751" y="706" type="line"/>
      <point x="617" y="706"/>
      <point x="435" y="693"/>
      <point x="303" y="635" type="curve" smooth="yes"/>
      <point x="174" y="580"/>
      <point x="92" y="470"/>
    </contour>
    <contour>
      <point x="214" y="813" type="line"/>
      <point x="264" y="843"/>
      <point x="420" y="894"/>
      <point x="547" y="894" type="curve" smooth="yes"/>
      <point x="686" y="894"/>
      <point x="751" y="861"/>
      <point x="751" y="767" type="curve" smooth="yes"/>
      <point x="751" y="596" type="line"/>
      <point x="1076" y="597" type="line"/>
      <point x="1076" y="710" type="line" smooth="yes"/>
      <point x="1076" y="1063"/>
      <point x="956" y="1160"/>
      <point x="647" y="1160" type="curve" smooth="yes"/>
      <point x="381" y="1160"/>
      <point x="179" y="1058"/>
      <point x="135" y="1035" type="curve"/>
    </contour>
    <contour>
      <point x="938" y="1700" type="move" name="top"/>
    </contour>
  </outline>
</glyph>
<glyph name="dcroat" format="1">
  <advance width="1381"/>
  <unicode hex="0111"/>
  <outline>
    <contour>
      <point x="634" y="1292" type="line"/>
      <point x="1349" y="1292" type="line"/>
      <point x="1349" y="1492" type="line"/>
      <point x="634" y="1492" type="line"/>
    </contour>
    <component base="d"/>
  </outline>
</glyph>
<glyph name="OE" format="1">
  <advance width="2156"/>
  <unicode hex="0152"/>
  <outline>
    <contour>
      <point x="97" y="769" type="curve" smooth="yes"/>
      <point x="88" y="306"/>
      <point x="337" y="-18"/>
      <point x="773" y="-16" type="curve" smooth="yes"/>
      <point x="931" y="-15"/>
      <point x="1044" y="32"/>
      <point x="1100" y="91" type="curve"/>
      <point x="1084" y="444" type="line"/>
      <point x="1040" y="312"/>
      <point x="950" y="270"/>
      <point x="809" y="270" type="curve" smooth="yes"/>
      <point x="606" y="270"/>
      <point x="487" y="437"/>
      <point x="487" y="758" type="curve" smooth="yes"/>
      <point x="487" y="1183"/>
      <point x="684" y="1244"/>
      <point x="833" y="1244" type="curve" smooth="yes"/>
      <point x="965" y="1244"/>
      <point x="1042" y="1172"/>
      <point x="1082" y="1083" type="curve"/>
      <point x="1097" y="1442" type="line"/>
      <point x="1045" y="1499"/>
      <point x="951" y="1539"/>
      <point x="811" y="1538" type="curve" smooth="yes"/>
      <point x="419" y="1536"/>
      <point x="106" y="1295"/>
    </contour>
    <contour>
      <point x="1050" y="0" type="line"/>
      <point x="2067" y="0" type="line"/>
      <point x="2067" y="291" type="line"/>
      <point x="1428" y="291" type="line"/>
      <point x="1428" y="642" type="line"/>
      <point x="1862" y="642" type="line"/>
      <point x="1862" y="919" type="line"/>
      <point x="1428" y="919" type="line"/>
      <point x="1428" y="1238" type="line"/>
      <point x="2007" y="1238" type="line"/>
      <point x="2007" y="1522" type="line"/>
      <point x="1050" y="1522" type="line"/>
    </contour>
    <contour>
      <point x="1065" y="-170" type="move" name="btm"/>
    </contour>
    <contour>
      <point x="1065" y="1700" type="move" name="top"/>
    </contour>
  </outline>
</glyph>
<glyph name="tbar" format="1">
  <advance width="926"/>
  <unicode hex="0167"/>
  <outline>
    <contour>
      <point x="59" y="492" type="line"/>
      <point x="857" y="492" type="line"/>
      <point x="857" y="738" type="line"/>
      <point x="59" y="738" type="line"/>
    </contour>
    <component base="t"/>
  </outline>
</glyph>
<glyph name="quoteleft" format="1">
  <advance width="624"/>
  <unicode hex="2018"/>
  <outline>
    <contour>
      <point x="303" y="916" type="curve"/>
      <point x="500" y="1068" type="line"/>
      <point x="500" y="1147" type="line"/>
      <point x="462" y="1169"/>
      <point x="410" y="1256"/>
      <point x="410" y="1382" type="curve" smooth="yes"/>
      <point x="410" y="1491"/>
      <point x="435" y="1591"/>
      <point x="467" y="1632" type="curve"/>
      <point x="467" y="1661" type="line"/>
      <point x="313" y="1756" type="line"/>
      <point x="254" y="1713"/>
      <point x="110" y="1571"/>
      <point x="110" y="1290" type="curve" smooth="yes"/>
      <point x="110" y="1087"/>
      <point x="216" y="949"/>
    </contour>
  </outline>
</glyph>
<glyph name="perthousand" format="1">
  <advance width="3252"/>
  <unicode hex="2030"/>
  <outline>
    <contour>
      <point x="2695" y="-4" type="curve" smooth="yes"/>
      <point x="2933" y="-3"/>
      <point x="3152" y="166"/>
      <point x="3152" y="471" type="curve" smooth="yes"/>
      <point x="3152" y="732"/>
      <point x="3025" y="941"/>
      <point x="2731" y="939" type="curve" smooth="yes"/>
      <point x="2492" y="938"/>
      <point x="2273" y="770"/>
      <point x="2273" y="464" type="curve" smooth="yes"/>
      <point x="2273" y="204"/>
      <point x="2404" y="-5"/>
    </contour>
    <contour>
      <point x="2710" y="230" type="curve" smooth="yes"/>
      <point x="2613" y="230"/>
      <point x="2556" y="327"/>
      <point x="2556" y="475" type="curve" smooth="yes"/>
      <point x="2556" y="620"/>
      <point x="2613" y="708"/>
      <point x="2714" y="708" type="curve" smooth="yes"/>
      <point x="2812" y="708"/>
      <point x="2868" y="610"/>
      <point x="2868" y="463" type="curve" smooth="yes"/>
      <point x="2868" y="318"/>
      <point x="2812" y="230"/>
    </contour>
    <component base="percent"/>
  </outline>
</glyph>
<glyph name="infinity" format="1">
  <advance width="2101"/>
  <unicode hex="221E"/>
  <outline>
    <contour>
      <point x="598" y="150" type="curve" smooth="yes"/>
      <point x="897" y="154"/>
      <point x="1082" y="419"/>
      <point x="1182" y="610" type="curve"/>
      <point x="1024" y="752" type="line"/>
      <point x="891" y="494"/>
      <point x="748" y="398"/>
      <point x="619" y="398" type="curve" smooth="yes"/>
      <point x="459" y="398"/>
      <point x="383" y="501"/>
      <point x="383" y="614" type="curve" smooth="yes"/>
      <point x="383" y="744"/>
      <point x="464" y="825"/>
      <point x="579" y="825" type="curve" smooth="yes"/>
      <point x="731" y="825"/>
      <point x="861" y="648"/>
      <point x="929" y="498" type="curve"/>
      <point x="1221" y="612" type="line"/>
      <point x="1107" y="833"/>
      <point x="977" y="1083"/>
      <point x="584" y="1084" type="curve" smooth="yes"/>
      <point x="268" y="1085"/>
      <point x="74" y="879"/>
      <point x="74" y="624" type="curve" smooth="yes"/>
      <point x="74" y="373"/>
      <point x="239" y="145"/>
    </contour>
    <contour>
      <point x="1516" y="145" type="curve" smooth="yes"/>
      <point x="1835" y="145"/>
      <point x="2028" y="355"/>
      <point x="2028" y="613" type="curve" smooth="yes"/>
      <point x="2028" y="864"/>
      <point x="1874" y="1082"/>
      <point x="1518" y="1079" type="curve"/>
      <point x="1221" y="1077"/>
      <point x="1021" y="810"/>
      <point x="921" y="619" type="curve"/>
      <point x="1080" y="477" type="line"/>
      <point x="1212" y="735"/>
      <point x="1348" y="831"/>
      <point x="1477" y="831" type="curve" smooth="yes"/>
      <point x="1638" y="831"/>
      <point x="1717" y="739"/>
      <point x="1717" y="625" type="curve" smooth="yes"/>
      <point x="1717" y="487"/>
      <point x="1635" y="400"/>
      <point x="1517" y="400" type="curve" smooth="yes"/>
      <point x="1364" y="400"/>
      <point x="1241" y="581"/>
      <point x="1172" y="731" type="curve"/>
      <point x="881" y="617" type="line"/>
      <point x="995" y="396"/>
      <point x="1112" y="145"/>
    </contour>
  </outline>
</glyph>
<glyph name="notequal" format="1">
  <advance width="1430"/>
  <unicode hex="2260"/>
  <outline>
    <contour>
      <point x="409" y="179" type="line"/>
      <point x="619" y="179" type="line"/>
      <point x="736" y="535" type="line"/>
      <point x="742" y="550" type="line"/>
      <point x="898" y="1031" type="line"/>
      <point x="905" y="1044" type="line"/>
      <point x="1010" y="1346" type="line"/>
      <point x="798" y="1346" type="line"/>
      <point x="702" y="1045" type="line"/>
      <point x="695" y="1031" type="line"/>
      <point x="536" y="551" type="line"/>
      <point x="530" y="537" type="line"/>
    </contour>
    <component base="equal"/>
  </outline>
</glyph>
<glyph name="lessequal" format="1">
  <advance width="1376"/>
  <unicode hex="2264"/>
  <outline>
    <contour>
      <point x="167" y="-2" type="line"/>
      <point x="1136" y="-2" type="line"/>
      <point x="1136" y="234" type="line"/>
      <point x="167" y="234" type="line"/>
    </contour>
    <contour>
      <point x="1136" y="312" type="line"/>
      <point x="1136" y="605" type="line"/>
      <point x="560" y="812" type="line"/>
      <point x="560" y="796" type="line"/>
      <point x="1136" y="1008" type="line"/>
      <point x="1136" y="1311" type="line"/>
      <point x="167" y="891" type="line"/>
      <point x="167" y="728" type="line"/>
    </contour>
  </outline>
</glyph>
<glyph name="lozenge" format="1">
  <advance width="1375"/>
  <unicode hex="25CA"/>
  <outline>
    <contour>
      <point x="684" y="1116" type="line"/>
      <point x="687" y="1116" type="line"/>
      <point x="960" y="776" type="line"/>
      <point x="960" y="773" type="line"/>
      <point x="687" y="415" type="line"/>
      <point x="684" y="415" type="line"/>
      <point x="412" y="771" type="line"/>
      <point x="412" y="776" type="line"/>
    </contour>
    <contour>
      <point x="69" y="781" type="line"/>
      <point x="69" y="768" type="line"/>
      <point x="683" y="-2" type="line"/>
      <point x="688" y="-2" type="line"/>
      <point x="1303" y="768" type="line"/>
      <point x="1303" y="781" type="line"/>
      <point x="688" y="1549" type="line"/>
      <point x="684" y="1549" type="line"/>
    </contour>
  </outline>
</glyph>
<glyph name="IJ_acutecomb" format="1">
  <advance width="1554"/>
  <outline>
    <contour>
      <point x="185" y="0" type="line"/>
      <point x="569" y="0" type="line"/>
      <point x="569" y="1522" type="line"/>
      <point x="185" y="1522" type="line"/>
    </contour>
    <contour>
      <point x="405" y="1534" type="line"/>
      <point x="494" y="1562"/>
      <point x="671" y="1734"/>
      <point x="754" y="1858" type="curve"/>
      <point x="492" y="1988" type="line"/>
      <point x="466" y="1909"/>
      <point x="273" y="1706"/>
      <point x="232" y="1666" type="curve"/>
    </contour>
    <contour>
      <point x="802" y="-332" type="line"/>
      <point x="973" y="-340"/>
      <point x="1299" y="-201"/>
      <point x="1356" y="94" type="curve" smooth="yes"/>
      <point x="1385" y="238"/>
      <point x="1375" y="414"/>
      <point x="1375" y="613" type="curve" smooth="yes"/>
      <point x="1375" y="1522" type="line"/>
      <point x="991" y="1522" type="line"/>
      <point x="991" y="608" type="line" smooth="yes"/>
      <point x="991" y="349"/>
      <point x="990" y="218"/>
      <point x="959" y="110" type="curve" smooth="yes"/>
      <point x="917" y="-39"/>
      <point x="818" y="-102"/>
      <point x="719" y="-141" type="curve"/>
    </contour>
    <component base="acute.cap" xOffset="914" yOffset="2"/>
  </outline>
</glyph>
<glyph name="grave.cap" format="1">
  <advance width="677"/>
  <outline>
    <contour>
      <point x="577" y="1666" type="line"/>
      <point x="537" y="1706"/>
      <point x="344" y="1909"/>
      <point x="317" y="1988" type="curve"/>
      <point x="55" y="1858" type="line"/>
      <point x="134" y="1736"/>
      <point x="321" y="1560"/>
      <point x="404" y="1534" type="curve"/>
    </contour>
    <contour>
      <point x="429" y="1700" type="move" name="_top"/>
    </contour>
  </outline>
</glyph>
